<svg xmlns="http://www.w3.org/2000/svg" version="1.1" xmlns:xlink="http://www.w3.org/1999/xlink" xmlns:svgjs="http://svgjs.dev/svgjs" viewBox="0 0 800 800"><defs><linearGradient gradientTransform="rotate(270)" x1="50%" y1="0%" x2="50%" y2="100%" id="sssquiggly-grad"><stop stop-color="hsl(206, 75%, 49%)" stop-opacity="1" offset="0%"></stop><stop stop-color="hsl(331, 90%, 56%)" stop-opacity="1" offset="100%"></stop></linearGradient></defs><g stroke-width="2" stroke="url(#sssquiggly-grad)" fill="none" stroke-linecap="round" transform="matrix(1,0,0,1,0,59.88450622558594)"><path d="M10,10C21.805555555555557,11.666666666666666,40.97222222222223,26.333333333333336,66.66666666666667,18C92.36111111111111,9.666666666666666,105.55555555555557,-32.916666666666664,133.33333333333334,-30C161.11111111111111,-27.083333333333332,172.22222222222223,31.375,200,32C227.77777777777777,32.625,238.8888888888889,-27.208333333333332,266.6666666666667,-27C294.44444444444446,-26.791666666666668,305.5555555555556,31.541666666666668,333.33333333333337,33C361.11111111111114,34.458333333333336,372.22222222222223,-18.541666666666668,400,-20C427.77777777777777,-21.458333333333332,438.8888888888889,26.208333333333332,466.6666666666667,26C494.44444444444446,25.791666666666668,505.5555555555556,-22.458333333333332,533.3333333333334,-21C561.1111111111111,-19.541666666666668,572.2222222222222,30.708333333333332,600,33C627.7777777777778,35.291666666666664,638.8888888888889,-12.5,666.6666666666667,-10C694.4444444444446,-7.5,707.6388888888889,40.833333333333336,733.3333333333334,45C759.0277777777778,49.166666666666664,778.1944444444445,17.291666666666664,790,10"></path><path d="M10,10C21.805555555555557,11.666666666666666,40.97222222222223,26.333333333333336,66.66666666666667,18C92.36111111111111,9.666666666666666,105.55555555555557,-32.916666666666664,133.33333333333334,-30C161.11111111111111,-27.083333333333332,172.22222222222223,31.375,200,32C227.77777777777777,32.625,238.8888888888889,-27.208333333333332,266.6666666666667,-27C294.44444444444446,-26.791666666666668,305.5555555555556,31.541666666666668,333.33333333333337,33C361.11111111111114,34.458333333333336,372.22222222222223,-18.541666666666668,400,-20C427.77777777777777,-21.458333333333332,438.8888888888889,26.208333333333332,466.6666666666667,26C494.44444444444446,25.791666666666668,505.5555555555556,-22.458333333333332,533.3333333333334,-21C561.1111111111111,-19.541666666666668,572.2222222222222,30.708333333333332,600,33C627.7777777777778,35.291666666666664,638.8888888888889,-12.5,666.6666666666667,-10C694.4444444444446,-7.5,707.6388888888889,40.833333333333336,733.3333333333334,45C759.0277777777778,49.166666666666664,778.1944444444445,17.291666666666664,790,10" transform="matrix(1,0,0,1,0,665)"></path><path d="M10,10C21.805555555555557,11.666666666666666,40.97222222222223,26.333333333333336,66.66666666666667,18C92.36111111111111,9.666666666666666,105.55555555555557,-32.916666666666664,133.33333333333334,-30C161.11111111111111,-27.083333333333332,172.22222222222223,31.375,200,32C227.77777777777777,32.625,238.8888888888889,-27.208333333333332,266.6666666666667,-27C294.44444444444446,-26.791666666666668,305.5555555555556,31.541666666666668,333.33333333333337,33C361.11111111111114,34.458333333333336,372.22222222222223,-18.541666666666668,400,-20C427.77777777777777,-21.458333333333332,438.8888888888889,26.208333333333332,466.6666666666667,26C494.44444444444446,25.791666666666668,505.5555555555556,-22.458333333333332,533.3333333333334,-21C561.1111111111111,-19.541666666666668,572.2222222222222,30.708333333333332,600,33C627.7777777777778,35.291666666666664,638.8888888888889,-12.5,666.6666666666667,-10C694.4444444444446,-7.5,707.6388888888889,40.833333333333336,733.3333333333334,45C759.0277777777778,49.166666666666664,778.1944444444445,17.291666666666664,790,10" transform="matrix(1,0,0,1,0,630)"></path><path d="M10,10C21.805555555555557,11.666666666666666,40.97222222222223,26.333333333333336,66.66666666666667,18C92.36111111111111,9.666666666666666,105.55555555555557,-32.916666666666664,133.33333333333334,-30C161.11111111111111,-27.083333333333332,172.22222222222223,31.375,200,32C227.77777777777777,32.625,238.8888888888889,-27.208333333333332,266.6666666666667,-27C294.44444444444446,-26.791666666666668,305.5555555555556,31.541666666666668,333.33333333333337,33C361.11111111111114,34.458333333333336,372.22222222222223,-18.541666666666668,400,-20C427.77777777777777,-21.458333333333332,438.8888888888889,26.208333333333332,466.6666666666667,26C494.44444444444446,25.791666666666668,505.5555555555556,-22.458333333333332,533.3333333333334,-21C561.1111111111111,-19.541666666666668,572.2222222222222,30.708333333333332,600,33C627.7777777777778,35.291666666666664,638.8888888888889,-12.5,666.6666666666667,-10C694.4444444444446,-7.5,707.6388888888889,40.833333333333336,733.3333333333334,45C759.0277777777778,49.166666666666664,778.1944444444445,17.291666666666664,790,10" transform="matrix(1,0,0,1,0,595)"></path><path d="M10,10C21.805555555555557,11.666666666666666,40.97222222222223,26.333333333333336,66.66666666666667,18C92.36111111111111,9.666666666666666,105.55555555555557,-32.916666666666664,133.33333333333334,-30C161.11111111111111,-27.083333333333332,172.22222222222223,31.375,200,32C227.77777777777777,32.625,238.8888888888889,-27.208333333333332,266.6666666666667,-27C294.44444444444446,-26.791666666666668,305.5555555555556,31.541666666666668,333.33333333333337,33C361.11111111111114,34.458333333333336,372.22222222222223,-18.541666666666668,400,-20C427.77777777777777,-21.458333333333332,438.8888888888889,26.208333333333332,466.6666666666667,26C494.44444444444446,25.791666666666668,505.5555555555556,-22.458333333333332,533.3333333333334,-21C561.1111111111111,-19.541666666666668,572.2222222222222,30.708333333333332,600,33C627.7777777777778,35.291666666666664,638.8888888888889,-12.5,666.6666666666667,-10C694.4444444444446,-7.5,707.6388888888889,40.833333333333336,733.3333333333334,45C759.0277777777778,49.166666666666664,778.1944444444445,17.291666666666664,790,10" transform="matrix(1,0,0,1,0,560)"></path><path d="M10,10C21.805555555555557,11.666666666666666,40.97222222222223,26.333333333333336,66.66666666666667,18C92.36111111111111,9.666666666666666,105.55555555555557,-32.916666666666664,133.33333333333334,-30C161.11111111111111,-27.083333333333332,172.22222222222223,31.375,200,32C227.77777777777777,32.625,238.8888888888889,-27.208333333333332,266.6666666666667,-27C294.44444444444446,-26.791666666666668,305.5555555555556,31.541666666666668,333.33333333333337,33C361.11111111111114,34.458333333333336,372.22222222222223,-18.541666666666668,400,-20C427.77777777777777,-21.458333333333332,438.8888888888889,26.208333333333332,466.6666666666667,26C494.44444444444446,25.791666666666668,505.5555555555556,-22.458333333333332,533.3333333333334,-21C561.1111111111111,-19.541666666666668,572.2222222222222,30.708333333333332,600,33C627.7777777777778,35.291666666666664,638.8888888888889,-12.5,666.6666666666667,-10C694.4444444444446,-7.5,707.6388888888889,40.833333333333336,733.3333333333334,45C759.0277777777778,49.166666666666664,778.1944444444445,17.291666666666664,790,10" transform="matrix(1,0,0,1,0,525)"></path><path d="M10,10C21.805555555555557,11.666666666666666,40.97222222222223,26.333333333333336,66.66666666666667,18C92.36111111111111,9.666666666666666,105.55555555555557,-32.916666666666664,133.33333333333334,-30C161.11111111111111,-27.083333333333332,172.22222222222223,31.375,200,32C227.77777777777777,32.625,238.8888888888889,-27.208333333333332,266.6666666666667,-27C294.44444444444446,-26.791666666666668,305.5555555555556,31.541666666666668,333.33333333333337,33C361.11111111111114,34.458333333333336,372.22222222222223,-18.541666666666668,400,-20C427.77777777777777,-21.458333333333332,438.8888888888889,26.208333333333332,466.6666666666667,26C494.44444444444446,25.791666666666668,505.5555555555556,-22.458333333333332,533.3333333333334,-21C561.1111111111111,-19.541666666666668,572.2222222222222,30.708333333333332,600,33C627.7777777777778,35.291666666666664,638.8888888888889,-12.5,666.6666666666667,-10C694.4444444444446,-7.5,707.6388888888889,40.833333333333336,733.3333333333334,45C759.0277777777778,49.166666666666664,778.1944444444445,17.291666666666664,790,10" transform="matrix(1,0,0,1,0,490)"></path><path d="M10,10C21.805555555555557,11.666666666666666,40.97222222222223,26.333333333333336,66.66666666666667,18C92.36111111111111,9.666666666666666,105.55555555555557,-32.916666666666664,133.33333333333334,-30C161.11111111111111,-27.083333333333332,172.22222222222223,31.375,200,32C227.77777777777777,32.625,238.8888888888889,-27.208333333333332,266.6666666666667,-27C294.44444444444446,-26.791666666666668,305.5555555555556,31.541666666666668,333.33333333333337,33C361.11111111111114,34.458333333333336,372.22222222222223,-18.541666666666668,400,-20C427.77777777777777,-21.458333333333332,438.8888888888889,26.208333333333332,466.6666666666667,26C494.44444444444446,25.791666666666668,505.5555555555556,-22.458333333333332,533.3333333333334,-21C561.1111111111111,-19.541666666666668,572.2222222222222,30.708333333333332,600,33C627.7777777777778,35.291666666666664,638.8888888888889,-12.5,666.6666666666667,-10C694.4444444444446,-7.5,707.6388888888889,40.833333333333336,733.3333333333334,45C759.0277777777778,49.166666666666664,778.1944444444445,17.291666666666664,790,10" transform="matrix(1,0,0,1,0,455)"></path><path d="M10,10C21.805555555555557,11.666666666666666,40.97222222222223,26.333333333333336,66.66666666666667,18C92.36111111111111,9.666666666666666,105.55555555555557,-32.916666666666664,133.33333333333334,-30C161.11111111111111,-27.083333333333332,172.22222222222223,31.375,200,32C227.77777777777777,32.625,238.8888888888889,-27.208333333333332,266.6666666666667,-27C294.44444444444446,-26.791666666666668,305.5555555555556,31.541666666666668,333.33333333333337,33C361.11111111111114,34.458333333333336,372.22222222222223,-18.541666666666668,400,-20C427.77777777777777,-21.458333333333332,438.8888888888889,26.208333333333332,466.6666666666667,26C494.44444444444446,25.791666666666668,505.5555555555556,-22.458333333333332,533.3333333333334,-21C561.1111111111111,-19.541666666666668,572.2222222222222,30.708333333333332,600,33C627.7777777777778,35.291666666666664,638.8888888888889,-12.5,666.6666666666667,-10C694.4444444444446,-7.5,707.6388888888889,40.833333333333336,733.3333333333334,45C759.0277777777778,49.166666666666664,778.1944444444445,17.291666666666664,790,10" transform="matrix(1,0,0,1,0,420)"></path><path d="M10,10C21.805555555555557,11.666666666666666,40.97222222222223,26.333333333333336,66.66666666666667,18C92.36111111111111,9.666666666666666,105.55555555555557,-32.916666666666664,133.33333333333334,-30C161.11111111111111,-27.083333333333332,172.22222222222223,31.375,200,32C227.77777777777777,32.625,238.8888888888889,-27.208333333333332,266.6666666666667,-27C294.44444444444446,-26.791666666666668,305.5555555555556,31.541666666666668,333.33333333333337,33C361.11111111111114,34.458333333333336,372.22222222222223,-18.541666666666668,400,-20C427.77777777777777,-21.458333333333332,438.8888888888889,26.208333333333332,466.6666666666667,26C494.44444444444446,25.791666666666668,505.5555555555556,-22.458333333333332,533.3333333333334,-21C561.1111111111111,-19.541666666666668,572.2222222222222,30.708333333333332,600,33C627.7777777777778,35.291666666666664,638.8888888888889,-12.5,666.6666666666667,-10C694.4444444444446,-7.5,707.6388888888889,40.833333333333336,733.3333333333334,45C759.0277777777778,49.166666666666664,778.1944444444445,17.291666666666664,790,10" transform="matrix(1,0,0,1,0,385)"></path><path d="M10,10C21.805555555555557,11.666666666666666,40.97222222222223,26.333333333333336,66.66666666666667,18C92.36111111111111,9.666666666666666,105.55555555555557,-32.916666666666664,133.33333333333334,-30C161.11111111111111,-27.083333333333332,172.22222222222223,31.375,200,32C227.77777777777777,32.625,238.8888888888889,-27.208333333333332,266.6666666666667,-27C294.44444444444446,-26.791666666666668,305.5555555555556,31.541666666666668,333.33333333333337,33C361.11111111111114,34.458333333333336,372.22222222222223,-18.541666666666668,400,-20C427.77777777777777,-21.458333333333332,438.8888888888889,26.208333333333332,466.6666666666667,26C494.44444444444446,25.791666666666668,505.5555555555556,-22.458333333333332,533.3333333333334,-21C561.1111111111111,-19.541666666666668,572.2222222222222,30.708333333333332,600,33C627.7777777777778,35.291666666666664,638.8888888888889,-12.5,666.6666666666667,-10C694.4444444444446,-7.5,707.6388888888889,40.833333333333336,733.3333333333334,45C759.0277777777778,49.166666666666664,778.1944444444445,17.291666666666664,790,10" transform="matrix(1,0,0,1,0,350)"></path><path d="M10,10C21.805555555555557,11.666666666666666,40.97222222222223,26.333333333333336,66.66666666666667,18C92.36111111111111,9.666666666666666,105.55555555555557,-32.916666666666664,133.33333333333334,-30C161.11111111111111,-27.083333333333332,172.22222222222223,31.375,200,32C227.77777777777777,32.625,238.8888888888889,-27.208333333333332,266.6666666666667,-27C294.44444444444446,-26.791666666666668,305.5555555555556,31.541666666666668,333.33333333333337,33C361.11111111111114,34.458333333333336,372.22222222222223,-18.541666666666668,400,-20C427.77777777777777,-21.458333333333332,438.8888888888889,26.208333333333332,466.6666666666667,26C494.44444444444446,25.791666666666668,505.5555555555556,-22.458333333333332,533.3333333333334,-21C561.1111111111111,-19.541666666666668,572.2222222222222,30.708333333333332,600,33C627.7777777777778,35.291666666666664,638.8888888888889,-12.5,666.6666666666667,-10C694.4444444444446,-7.5,707.6388888888889,40.833333333333336,733.3333333333334,45C759.0277777777778,49.166666666666664,778.1944444444445,17.291666666666664,790,10" transform="matrix(1,0,0,1,0,315)"></path><path d="M10,10C21.805555555555557,11.666666666666666,40.97222222222223,26.333333333333336,66.66666666666667,18C92.36111111111111,9.666666666666666,105.55555555555557,-32.916666666666664,133.33333333333334,-30C161.11111111111111,-27.083333333333332,172.22222222222223,31.375,200,32C227.77777777777777,32.625,238.8888888888889,-27.208333333333332,266.6666666666667,-27C294.44444444444446,-26.791666666666668,305.5555555555556,31.541666666666668,333.33333333333337,33C361.11111111111114,34.458333333333336,372.22222222222223,-18.541666666666668,400,-20C427.77777777777777,-21.458333333333332,438.8888888888889,26.208333333333332,466.6666666666667,26C494.44444444444446,25.791666666666668,505.5555555555556,-22.458333333333332,533.3333333333334,-21C561.1111111111111,-19.541666666666668,572.2222222222222,30.708333333333332,600,33C627.7777777777778,35.291666666666664,638.8888888888889,-12.5,666.6666666666667,-10C694.4444444444446,-7.5,707.6388888888889,40.833333333333336,733.3333333333334,45C759.0277777777778,49.166666666666664,778.1944444444445,17.291666666666664,790,10" transform="matrix(1,0,0,1,0,280)"></path><path d="M10,10C21.805555555555557,11.666666666666666,40.97222222222223,26.333333333333336,66.66666666666667,18C92.36111111111111,9.666666666666666,105.55555555555557,-32.916666666666664,133.33333333333334,-30C161.11111111111111,-27.083333333333332,172.22222222222223,31.375,200,32C227.77777777777777,32.625,238.8888888888889,-27.208333333333332,266.6666666666667,-27C294.44444444444446,-26.791666666666668,305.5555555555556,31.541666666666668,333.33333333333337,33C361.11111111111114,34.458333333333336,372.22222222222223,-18.541666666666668,400,-20C427.77777777777777,-21.458333333333332,438.8888888888889,26.208333333333332,466.6666666666667,26C494.44444444444446,25.791666666666668,505.5555555555556,-22.458333333333332,533.3333333333334,-21C561.1111111111111,-19.541666666666668,572.2222222222222,30.708333333333332,600,33C627.7777777777778,35.291666666666664,638.8888888888889,-12.5,666.6666666666667,-10C694.4444444444446,-7.5,707.6388888888889,40.833333333333336,733.3333333333334,45C759.0277777777778,49.166666666666664,778.1944444444445,17.291666666666664,790,10" transform="matrix(1,0,0,1,0,245)"></path><path d="M10,10C21.805555555555557,11.666666666666666,40.97222222222223,26.333333333333336,66.66666666666667,18C92.36111111111111,9.666666666666666,105.55555555555557,-32.916666666666664,133.33333333333334,-30C161.11111111111111,-27.083333333333332,172.22222222222223,31.375,200,32C227.77777777777777,32.625,238.8888888888889,-27.208333333333332,266.6666666666667,-27C294.44444444444446,-26.791666666666668,305.5555555555556,31.541666666666668,333.33333333333337,33C361.11111111111114,34.458333333333336,372.22222222222223,-18.541666666666668,400,-20C427.77777777777777,-21.458333333333332,438.8888888888889,26.208333333333332,466.6666666666667,26C494.44444444444446,25.791666666666668,505.5555555555556,-22.458333333333332,533.3333333333334,-21C561.1111111111111,-19.541666666666668,572.2222222222222,30.708333333333332,600,33C627.7777777777778,35.291666666666664,638.8888888888889,-12.5,666.6666666666667,-10C694.4444444444446,-7.5,707.6388888888889,40.833333333333336,733.3333333333334,45C759.0277777777778,49.166666666666664,778.1944444444445,17.291666666666664,790,10" transform="matrix(1,0,0,1,0,210)"></path><path d="M10,10C21.805555555555557,11.666666666666666,40.97222222222223,26.333333333333336,66.66666666666667,18C92.36111111111111,9.666666666666666,105.55555555555557,-32.916666666666664,133.33333333333334,-30C161.11111111111111,-27.083333333333332,172.22222222222223,31.375,200,32C227.77777777777777,32.625,238.8888888888889,-27.208333333333332,266.6666666666667,-27C294.44444444444446,-26.791666666666668,305.5555555555556,31.541666666666668,333.33333333333337,33C361.11111111111114,34.458333333333336,372.22222222222223,-18.541666666666668,400,-20C427.77777777777777,-21.458333333333332,438.8888888888889,26.208333333333332,466.6666666666667,26C494.44444444444446,25.791666666666668,505.5555555555556,-22.458333333333332,533.3333333333334,-21C561.1111111111111,-19.541666666666668,572.2222222222222,30.708333333333332,600,33C627.7777777777778,35.291666666666664,638.8888888888889,-12.5,666.6666666666667,-10C694.4444444444446,-7.5,707.6388888888889,40.833333333333336,733.3333333333334,45C759.0277777777778,49.166666666666664,778.1944444444445,17.291666666666664,790,10" transform="matrix(1,0,0,1,0,175)"></path><path d="M10,10C21.805555555555557,11.666666666666666,40.97222222222223,26.333333333333336,66.66666666666667,18C92.36111111111111,9.666666666666666,105.55555555555557,-32.916666666666664,133.33333333333334,-30C161.11111111111111,-27.083333333333332,172.22222222222223,31.375,200,32C227.77777777777777,32.625,238.8888888888889,-27.208333333333332,266.6666666666667,-27C294.44444444444446,-26.791666666666668,305.5555555555556,31.541666666666668,333.33333333333337,33C361.11111111111114,34.458333333333336,372.22222222222223,-18.541666666666668,400,-20C427.77777777777777,-21.458333333333332,438.8888888888889,26.208333333333332,466.6666666666667,26C494.44444444444446,25.791666666666668,505.5555555555556,-22.458333333333332,533.3333333333334,-21C561.1111111111111,-19.541666666666668,572.2222222222222,30.708333333333332,600,33C627.7777777777778,35.291666666666664,638.8888888888889,-12.5,666.6666666666667,-10C694.4444444444446,-7.5,707.6388888888889,40.833333333333336,733.3333333333334,45C759.0277777777778,49.166666666666664,778.1944444444445,17.291666666666664,790,10" transform="matrix(1,0,0,1,0,140)"></path><path d="M10,10C21.805555555555557,11.666666666666666,40.97222222222223,26.333333333333336,66.66666666666667,18C92.36111111111111,9.666666666666666,105.55555555555557,-32.916666666666664,133.33333333333334,-30C161.11111111111111,-27.083333333333332,172.22222222222223,31.375,200,32C227.77777777777777,32.625,238.8888888888889,-27.208333333333332,266.6666666666667,-27C294.44444444444446,-26.791666666666668,305.5555555555556,31.541666666666668,333.33333333333337,33C361.11111111111114,34.458333333333336,372.22222222222223,-18.541666666666668,400,-20C427.77777777777777,-21.458333333333332,438.8888888888889,26.208333333333332,466.6666666666667,26C494.44444444444446,25.791666666666668,505.5555555555556,-22.458333333333332,533.3333333333334,-21C561.1111111111111,-19.541666666666668,572.2222222222222,30.708333333333332,600,33C627.7777777777778,35.291666666666664,638.8888888888889,-12.5,666.6666666666667,-10C694.4444444444446,-7.5,707.6388888888889,40.833333333333336,733.3333333333334,45C759.0277777777778,49.166666666666664,778.1944444444445,17.291666666666664,790,10" transform="matrix(1,0,0,1,0,105)"></path><path d="M10,10C21.805555555555557,11.666666666666666,40.97222222222223,26.333333333333336,66.66666666666667,18C92.36111111111111,9.666666666666666,105.55555555555557,-32.916666666666664,133.33333333333334,-30C161.11111111111111,-27.083333333333332,172.22222222222223,31.375,200,32C227.77777777777777,32.625,238.8888888888889,-27.208333333333332,266.6666666666667,-27C294.44444444444446,-26.791666666666668,305.5555555555556,31.541666666666668,333.33333333333337,33C361.11111111111114,34.458333333333336,372.22222222222223,-18.541666666666668,400,-20C427.77777777777777,-21.458333333333332,438.8888888888889,26.208333333333332,466.6666666666667,26C494.44444444444446,25.791666666666668,505.5555555555556,-22.458333333333332,533.3333333333334,-21C561.1111111111111,-19.541666666666668,572.2222222222222,30.708333333333332,600,33C627.7777777777778,35.291666666666664,638.8888888888889,-12.5,666.6666666666667,-10C694.4444444444446,-7.5,707.6388888888889,40.833333333333336,733.3333333333334,45C759.0277777777778,49.166666666666664,778.1944444444445,17.291666666666664,790,10" transform="matrix(1,0,0,1,0,70)"></path><path d="M10,10C21.805555555555557,11.666666666666666,40.97222222222223,26.333333333333336,66.66666666666667,18C92.36111111111111,9.666666666666666,105.55555555555557,-32.916666666666664,133.33333333333334,-30C161.11111111111111,-27.083333333333332,172.22222222222223,31.375,200,32C227.77777777777777,32.625,238.8888888888889,-27.208333333333332,266.6666666666667,-27C294.44444444444446,-26.791666666666668,305.5555555555556,31.541666666666668,333.33333333333337,33C361.11111111111114,34.458333333333336,372.22222222222223,-18.541666666666668,400,-20C427.77777777777777,-21.458333333333332,438.8888888888889,26.208333333333332,466.6666666666667,26C494.44444444444446,25.791666666666668,505.5555555555556,-22.458333333333332,533.3333333333334,-21C561.1111111111111,-19.541666666666668,572.2222222222222,30.708333333333332,600,33C627.7777777777778,35.291666666666664,638.8888888888889,-12.5,666.6666666666667,-10C694.4444444444446,-7.5,707.6388888888889,40.833333333333336,733.3333333333334,45C759.0277777777778,49.166666666666664,778.1944444444445,17.291666666666664,790,10" transform="matrix(1,0,0,1,0,35)"></path></g></svg>